<?xml version="1.0" standalone="no"?>
<!DOCTYPE svg PUBLIC "-//W3C//DTD SVG 20010904//EN"
 "http://www.w3.org/TR/2001/REC-SVG-20010904/DTD/svg10.dtd">
<svg version="1.0" xmlns="http://www.w3.org/2000/svg"
 width="178.000000pt" height="178.000000pt" viewBox="0 0 178.000000 178.000000"
 preserveAspectRatio="xMidYMid meet">
<metadata>
Created by potrace 1.11, written by Peter Selinger 2001-2013
</metadata>
<g transform="translate(0.000000,178.000000) scale(0.100000,-0.100000)"
fill="#000000" stroke="none">
<path d="M810 1769 c-229 -18 -461 -140 -603 -316 -89 -110 -165 -269 -183
-380 -3 -21 -8 -41 -11 -46 -2 -4 -4 -63 -4 -130 0 -91 5 -147 20 -211 52
-216 191 -415 374 -533 153 -100 309 -145 490 -142 134 2 218 17 327 62 270
109 472 352 536 642 11 51 14 277 3 330 -45 235 -185 450 -379 580 -118 79
-270 133 -394 141 -39 3 -78 6 -86 7 -8 1 -49 0 -90 -4z m-348 -576 c15 -15
28 -30 28 -34 0 -4 35 -80 79 -170 147 -307 201 -427 201 -448 0 -35 -27 -88
-52 -104 -31 -21 -87 -28 -112 -15 -25 13 -76 59 -76 69 0 4 -31 71 -69 150
-238 497 -230 477 -194 529 51 74 132 83 195 23z m458 17 c20 -11 90 -145 223
-431 19 -41 49 -105 67 -144 19 -41 33 -84 32 -104 -4 -113 -155 -158 -218
-65 -11 16 -46 85 -79 154 -125 267 -177 376 -195 410 -32 61 -30 117 6 159
41 49 98 56 164 21z m544 -5 c59 -39 76 -125 37 -189 -16 -25 -42 -45 -94 -70
-39 -19 -75 -32 -79 -30 -5 3 -8 14 -8 26 0 11 -13 36 -30 54 -35 40 -45 72
-36 118 18 96 129 144 210 91z"/>
</g>
</svg>
