<?xml version="1.0" standalone="no"?>
<!DOCTYPE svg PUBLIC "-//W3C//DTD SVG 20010904//EN"
 "http://www.w3.org/TR/2001/REC-SVG-20010904/DTD/svg10.dtd">
<svg version="1.0" xmlns="http://www.w3.org/2000/svg"
 width="400.000000pt" height="400.000000pt" viewBox="0 0 400.000000 400.000000"
 preserveAspectRatio="xMidYMid meet">
<metadata>
Created by potrace 1.11, written by Peter Selinger 2001-2013
</metadata>
<g transform="translate(0.000000,400.000000) scale(0.100000,-0.100000)"
fill="#000000" stroke="none">
<path d="M204 3979 c-70 -27 -134 -85 -169 -155 l-30 -59 0 -1765 0 -1765 21
-46 c31 -66 84 -121 151 -155 l58 -29 1752 -3 1752 -2 58 22 c76 28 153 105
182 183 l21 56 -2 1752 -3 1752 -28 57 c-32 65 -89 121 -156 152 l-46 21
-1755 2 c-1727 2 -1756 2 -1806 -18z m2069 -1003 c144 -29 321 -108 421 -189
l30 -24 -30 -44 c-166 -245 -207 -305 -215 -313 -4 -5 -32 7 -63 28 -79 52
-192 103 -272 122 -89 21 -200 14 -247 -15 -60 -37 -75 -111 -34 -172 27 -41
155 -108 302 -158 109 -37 159 -58 249 -103 242 -121 349 -295 332 -539 -20
-276 -189 -468 -474 -540 -108 -27 -295 -32 -431 -12 -194 29 -404 120 -553
240 l-36 29 41 57 c23 30 49 65 57 77 64 90 163 220 170 220 4 0 27 -15 51
-33 156 -118 323 -178 478 -174 138 4 201 49 201 146 0 37 -5 49 -36 78 -48
45 -85 63 -277 135 -89 33 -199 78 -245 100 -182 88 -292 203 -332 348 -18 63
-20 216 -5 290 17 79 72 191 127 254 85 99 257 185 401 202 29 4 54 8 56 10
10 9 264 -6 334 -20z"/>
</g>
</svg>
